<svg width="277" height="76" viewBox="0 0 277 76" fill="none" xmlns="http://www.w3.org/2000/svg">
<g clip-path="url(#clip0)">
<path d="M32.3257 46.6436C32.4606 44.2377 32.0748 41.8309 31.1946 39.5882C30.3145 37.3455 28.9608 35.3196 27.2262 33.6494C23.1159 30.2914 17.8857 28.6214 12.5929 28.977H7.62939e-05V64.6641H2.82444C3.49723 64.6714 4.1648 64.5447 4.78818 64.2912C5.41156 64.0377 5.97833 63.6626 6.4555 63.1876C6.93267 62.7126 7.31069 62.1473 7.56755 61.5246C7.82441 60.9019 7.95511 60.2341 7.95177 59.5604V57.1745V35.9193H12.3887C15.6422 35.6542 18.8705 36.6708 21.3867 38.7531C22.4083 39.824 23.1975 41.0951 23.7045 42.4864C24.2115 43.8777 24.4254 45.3591 24.3327 46.8372C24.434 48.3049 24.2251 49.7774 23.7198 51.1589C23.2146 52.5404 22.4244 53.7998 21.4005 54.8549C21.3481 54.9047 21.2874 54.9461 21.2322 54.9958C18.915 56.8635 15.9842 57.7964 13.0154 57.6112H8.8739V58.4711C8.98389 60.1168 9.71889 61.6578 10.9281 62.7777C12.1374 63.8976 13.729 64.5112 15.376 64.4926C15.5858 64.4926 15.7873 64.4926 15.9889 64.465C16.0855 64.465 16.174 64.443 16.2651 64.4319C20.3764 64.181 24.2834 62.5506 27.3559 59.8037C29.0464 58.0723 30.3607 56.0093 31.216 53.7444C32.0713 51.4795 32.4491 49.0618 32.3257 46.6436V46.6436Z" fill="#212322"/>
<path d="M61.0402 33.6989C60.2856 32.9591 59.811 31.9797 59.6978 30.9283C59.5846 29.8769 59.8398 28.8188 60.4196 27.9349C60.9994 27.051 61.8678 26.3962 62.8764 26.0826C63.885 25.769 64.9711 25.8161 65.9488 26.2157C66.9266 26.6153 67.7354 27.3427 68.2368 28.2734C68.7382 29.2041 68.901 30.2804 68.6975 31.3181C68.4941 32.3558 67.937 33.2903 67.1214 33.9621C66.3058 34.634 65.2825 35.0013 64.2264 35.0011C63.6347 35.0135 63.0466 34.9043 62.4986 34.6803C61.9506 34.4564 61.4543 34.1224 61.0402 33.6989Z" fill="#212322"/>
<path d="M68.0449 37.1963H60.3969V64.6638H68.0449V37.1963Z" fill="#212322"/>
<path d="M78.7078 64.6641H71.0626V26.7874H78.7078V64.6641Z" fill="#212322"/>
<path d="M86.516 75.4879C83.6579 75.4171 80.9368 74.2469 78.9177 72.2202L82.3855 66.5523C82.8913 67.1148 83.5032 67.5715 84.1861 67.8961C84.8689 68.2206 85.609 68.4067 86.364 68.4435C86.7323 68.4342 87.0926 68.3336 87.4125 68.1507C87.7325 67.9678 88.0021 67.7084 88.1973 67.3956C88.6851 66.7609 88.9537 65.9846 88.9622 65.1838C88.9622 64.4005 85.4272 55.0742 78.3572 37.2048H86.516L93.1949 54.3102L99.8736 37.2048H108.019L95.271 69.5742C94.592 71.3597 93.3705 72.8866 91.7785 73.9397C90.2166 74.9672 88.3847 75.5061 86.516 75.4879V75.4879Z" fill="#212322"/>
<path d="M116.826 36.099C116.456 36.3969 116.16 36.7766 115.961 37.2083C115.761 37.64 115.664 38.1119 115.678 38.5873C115.669 39.0894 115.795 39.5846 116.042 40.0219C116.288 40.4593 116.647 40.8231 117.08 41.0756C119.133 42.0856 121.311 42.8155 123.558 43.2458C126.448 43.8394 129.151 45.1268 131.435 46.9975C132.406 47.9363 133.16 49.0762 133.644 50.3375C134.129 51.5988 134.332 52.9509 134.24 54.2992C134.282 55.7863 133.981 57.2631 133.358 58.6138C132.735 59.9645 131.809 61.1526 130.651 62.0847C127.954 64.177 124.599 65.2367 121.191 65.0734C115.487 65.0491 110.017 62.7951 105.948 58.7918L110.688 52.9721C113.518 55.8853 117.302 57.6796 121.346 58.0261C122.566 58.0961 123.775 57.7641 124.789 57.0806C125.189 56.7894 125.512 56.4047 125.73 55.9599C125.948 55.5152 126.054 55.0238 126.04 54.5286C126.052 54.0258 125.937 53.5281 125.705 53.0818C125.473 52.6356 125.133 52.2555 124.714 51.9769C123.08 51.0596 121.309 50.4135 119.468 50.0636C116.187 49.4612 113.076 48.1457 110.357 46.2097C109.34 45.2678 108.552 44.1054 108.052 42.8116C107.553 41.5179 107.355 40.1268 107.475 38.7449C107.398 37.2403 107.69 35.7397 108.325 34.374C108.961 33.0084 109.92 31.8191 111.119 30.9097C113.765 28.999 116.971 28.0262 120.23 28.145C122.662 28.1538 125.075 28.5677 127.37 29.3697C129.642 30.1277 131.753 31.3055 133.591 32.8422L129.563 38.6647C126.85 36.4528 123.477 35.212 119.979 35.1396C118.848 35.0767 117.731 35.4165 116.826 36.099V36.099Z" fill="#212322"/>
<path d="M163.313 50.9317C163.353 52.8036 163.005 54.6636 162.293 56.3945C161.58 58.1254 160.517 59.6899 159.172 60.9898C156.353 63.6158 152.646 65.0756 148.796 65.0756C144.946 65.0756 141.239 63.6158 138.42 60.9898C135.774 58.3076 134.29 54.6895 134.29 50.9194C134.29 47.1492 135.774 43.5309 138.42 40.8488C141.231 38.2082 144.941 36.7385 148.796 36.7385C152.65 36.7385 156.36 38.2082 159.172 40.8488C160.516 42.1547 161.578 43.7239 162.291 45.4586C163.003 47.1933 163.351 49.0564 163.313 50.9317V50.9317ZM142.001 50.9317C141.916 52.938 142.6 54.9011 143.912 56.4198C144.54 57.0888 145.299 57.6218 146.14 57.9863C146.982 58.3507 147.89 58.5387 148.807 58.5387C149.724 58.5387 150.632 58.3507 151.473 57.9863C152.315 57.6218 153.074 57.0888 153.702 56.4198C155.014 54.9012 155.698 52.938 155.613 50.9317C155.694 48.9183 155.012 46.9488 153.702 45.419C153.078 44.7426 152.321 44.2029 151.479 43.8338C150.636 43.4647 149.727 43.2742 148.807 43.2742C147.887 43.2742 146.978 43.4647 146.135 43.8338C145.293 44.2029 144.536 44.7426 143.912 45.419C142.602 46.9488 141.919 48.9183 142.001 50.9317Z" fill="#212322"/>
<path d="M178.002 58.2831C179.368 58.2263 180.701 57.8506 181.897 57.1857C183.092 56.5209 184.115 55.5854 184.885 54.4541L189.421 59.5576C187.996 61.2244 186.241 62.5757 184.265 63.5253C182.29 64.4749 180.139 65.0023 177.949 65.0734C174.1 65.1716 170.363 63.7711 167.524 61.1667C166.171 59.8269 165.098 58.2309 164.367 56.4717C163.636 54.7125 163.262 52.8252 163.267 50.9198C163.271 49.0145 163.654 47.1291 164.394 45.3735C165.133 43.6179 166.214 42.0271 167.573 40.6939C170.339 38.1006 174.001 36.6824 177.789 36.7376C179.846 36.755 181.881 37.1709 183.78 37.9624C185.796 38.7749 187.613 40.012 189.109 41.5897L185.133 46.7984C184.261 45.7785 183.183 44.9556 181.97 44.3837C180.757 43.8118 179.436 43.5039 178.096 43.4807C176.183 43.4469 174.33 44.1508 172.921 45.4466C172.186 46.1452 171.611 46.9956 171.237 47.939C170.863 48.8824 170.698 49.896 170.754 50.9096C170.696 51.9192 170.86 52.9292 171.235 53.8683C171.609 54.8075 172.185 55.6529 172.921 56.345C174.306 57.6163 176.123 58.3095 178.002 58.2831V58.2831Z" fill="#212322"/>
<path d="M190.978 33.6992C190.225 32.9597 189.75 31.981 189.638 30.9303C189.525 29.8796 189.78 28.8221 190.359 27.9389C190.939 27.0557 191.807 26.4016 192.815 26.0883C193.823 25.775 194.908 25.8219 195.885 26.2213C196.862 26.6206 197.67 27.3476 198.171 28.2776C198.672 29.2076 198.835 30.2831 198.632 31.3201C198.429 32.3571 197.872 33.2911 197.057 33.9626C196.243 34.6341 195.22 35.0014 194.165 35.0014C193.573 35.0142 192.985 34.9051 192.437 34.6812C191.889 34.4572 191.392 34.123 190.978 33.6992V33.6992ZM197.989 64.664H190.341V37.1965H197.989V64.664Z" fill="#212322"/>
<path d="M234.784 64.6641H227.136V26.7874H234.784V64.6641Z" fill="#212322"/>
<path d="M221.187 39.2395C218.832 37.4983 215.952 36.62 213.028 36.7514C208.598 36.6892 204.268 38.0689 200.689 40.6828L204.104 45.6345C205.244 44.7892 206.508 44.126 207.851 43.6688C209.197 43.1664 210.619 42.8989 212.056 42.878C215.15 42.878 216.697 44.3415 216.697 47.2684V47.4205H210.987C208.053 47.2614 205.139 47.9906 202.624 49.5133C201.615 50.211 200.802 51.1584 200.266 52.2635C199.73 53.3685 199.488 54.5935 199.565 55.8196C199.515 57.0937 199.756 58.3624 200.268 59.5296C200.781 60.6969 201.551 61.7323 202.522 62.5573C204.569 64.2695 207.173 65.1688 209.839 65.0842C211.248 65.0882 212.639 64.7599 213.899 64.1259C215.158 63.4919 216.251 62.57 217.089 61.4348L217.155 61.3546V61.6477C217.456 62.5373 218.031 63.3088 218.796 63.8521C219.561 64.3953 220.478 64.6823 221.416 64.6723H224.348V47.1606C224.476 45.6848 224.257 44.1993 223.708 42.8237C223.159 41.4481 222.295 40.2204 221.187 39.2395V39.2395ZM216.647 54.1968C216.67 54.8376 216.541 55.4747 216.271 56.056C216 56.6374 215.597 57.1466 215.093 57.5422C214.08 58.3678 212.81 58.8109 211.504 58.7944C210.401 58.8643 209.305 58.588 208.367 58.0038C208.007 57.7488 207.717 57.4067 207.524 57.0094C207.331 56.6121 207.241 56.1725 207.263 55.7312C207.263 53.8254 208.792 52.8725 211.852 52.8725H216.645L216.647 54.1968Z" fill="#212322"/>
<path d="M54.4249 39.2397C52.0707 37.4978 49.1901 36.6194 46.2661 36.7515C41.8364 36.689 37.5062 38.0686 33.9272 40.6829L37.3425 45.6346C38.482 44.7887 39.746 44.1255 41.0892 43.6689C42.4353 43.1663 43.8577 42.8988 45.2942 42.8782C48.3865 42.8782 49.9327 44.3416 49.9327 47.2686V47.4206H44.2229C41.2886 47.2616 38.3745 47.9907 35.8599 49.5134C34.8505 50.2115 34.0385 51.159 33.5025 52.2639C32.9665 53.3689 32.7248 54.5937 32.8008 55.8197C32.7516 57.0937 32.9922 58.3624 33.5045 59.5296C34.0168 60.6968 34.7873 61.7321 35.7578 62.5574C37.8047 64.2696 40.4087 65.1689 43.0745 65.0844C44.4956 65.0878 45.8973 64.7545 47.1651 64.1115C48.4329 63.4686 49.5308 62.5343 50.369 61.3851C50.369 61.4211 50.3829 61.4542 50.3939 61.4874C50.6691 62.4153 51.2385 63.2285 52.0161 63.8036C52.7936 64.3787 53.7371 64.6846 54.7038 64.6752H57.5807V47.1634C57.71 45.6876 57.4918 44.202 56.9437 42.8258C56.3956 41.4497 55.5329 40.2214 54.4249 39.2397V39.2397ZM49.8858 54.1969C49.9084 54.8378 49.7793 55.4748 49.5092 56.0562C49.239 56.6375 48.8355 57.1469 48.3314 57.5423C47.3186 58.3681 46.0482 58.8113 44.7421 58.7945C43.6399 58.8648 42.5432 58.5885 41.6055 58.004C41.2454 57.7487 40.9555 57.4066 40.7624 57.0094C40.5694 56.6122 40.4796 56.1726 40.5012 55.7313C40.5012 53.8255 42.0308 52.8726 45.09 52.8726H49.8803L49.8858 54.1969Z" fill="#212322"/>
<path d="M257.756 36.7376C267.887 36.7376 276.1 28.5136 276.1 18.3688C276.1 8.224 267.887 0 257.756 0C247.625 0 239.412 8.224 239.412 18.3688C239.412 28.5136 247.625 36.7376 257.756 36.7376Z" fill="#FFA400"/>
<path d="M270.023 31.3327H269.976H269.929C269.558 31.336 269.19 31.2643 268.847 31.1218C268.504 30.9793 268.193 30.7689 267.933 30.5033C267.872 30.4401 267.815 30.3736 267.762 30.3042C266.271 31.185 264.564 31.6331 262.833 31.5982C262.672 31.5982 262.512 31.5982 262.356 31.5982C260.908 31.5596 259.489 31.1807 258.214 30.4922C257.491 30.0927 256.826 29.5939 256.24 29.0103C255.387 28.1842 254.714 27.1905 254.262 26.0915C253.811 24.9925 253.591 23.8118 253.617 22.6238C253.584 20.7952 254.124 19.0021 255.163 17.498C255.485 17.04 255.846 16.6118 256.243 16.218C257.106 15.3567 258.136 14.6808 259.269 14.2316C260.403 13.7823 261.615 13.5692 262.833 13.6053C263.148 13.6053 263.452 13.6053 263.753 13.644C264.937 13.7286 266.094 14.0441 267.157 14.5729V7.05296H272.061V29.8785C274.24 27.1612 275.603 23.8791 275.99 20.4154C276.376 16.9517 275.771 13.4495 274.244 10.3175C272.717 7.18551 270.332 4.5531 267.367 2.72768C264.402 0.90226 260.979 -0.0409131 257.499 0.00843358C254.019 0.0577802 250.625 1.09753 247.713 3.00628C244.8 4.91503 242.491 7.61411 241.053 10.7881C239.615 13.9622 239.109 17.4803 239.593 20.9316C240.078 24.3829 241.533 27.6251 243.788 30.2794L246.03 19.0158H252.855L249.697 34.8853C253.136 36.57 257.016 37.135 260.792 36.5009C264.569 35.8668 268.052 34.0654 270.755 31.3493L270.023 31.3327ZM250.442 16.9894C249.575 16.9816 248.736 16.6733 248.07 16.1169C247.403 15.5606 246.95 14.7905 246.786 13.9373C246.622 13.084 246.758 12.2003 247.171 11.4361C247.584 10.6719 248.248 10.0744 249.051 9.74495C249.854 9.41547 250.746 9.37428 251.575 9.62852C252.405 9.88276 253.121 10.4168 253.603 11.1398C254.084 11.8628 254.3 12.7302 254.215 13.5949C254.131 14.4596 253.749 15.2681 253.137 15.8834C252.787 16.2423 252.367 16.5256 251.904 16.7158C251.44 16.906 250.943 16.9991 250.442 16.9894V16.9894Z" fill="#005F61"/>
<path d="M262.828 17.7466C262.312 17.743 261.8 17.8309 261.315 18.0065C260.699 18.2364 260.151 18.6166 259.719 19.1125C258.885 20.0848 258.45 21.3375 258.501 22.6182C258.446 23.8927 258.882 25.1397 259.719 26.1017C260.107 26.5409 260.586 26.8893 261.123 27.122C261.661 27.3547 262.243 27.466 262.828 27.4481C263.154 27.4493 263.48 27.4159 263.8 27.3486C264.629 27.1774 265.379 26.7396 265.937 26.1017C266.773 25.1397 267.209 23.8927 267.154 22.6182C267.207 21.3373 266.772 20.0842 265.937 19.1125C265.551 18.6691 265.073 18.3167 264.535 18.0806C263.998 17.8444 263.415 17.7304 262.828 17.7466V17.7466Z" fill="#005F61"/>
</g>
<defs>
<clipPath id="clip0">
<rect width="276.1" height="75.488" fill="white"/>
</clipPath>
</defs>
</svg>
