<svg width="321" height="64" viewBox="0 0 321 64" fill="none" xmlns="http://www.w3.org/2000/svg">
<g clip-path="url(#clip0)">
<path d="M50.9091 52.3637H13.0951C12.2926 52.3637 11.642 53.0143 11.6405 53.8168L11.6363 58.172C11.6334 59.7273 12.2373 61.1904 13.3366 62.2927C14.4361 63.3936 15.8992 64.0001 17.4545 64.0001H46.5454C49.7542 64.0001 52.3636 61.3908 52.3636 58.1819V53.8183C52.3636 53.0143 51.7131 52.3637 50.9091 52.3637Z" fill="#F0F0F0"/>
<path d="M45.7628 0C42.7785 0 39.2672 0.659046 35.608 1.90487C35.0526 2.09373 34.6663 2.59664 34.6251 3.18191C34.5853 3.76718 34.9007 4.31823 35.4248 4.581C36.4022 5.07109 37.3751 5.58669 38.3312 6.14632C39.0229 6.55255 39.2558 7.44601 38.8511 8.13778C38.4604 8.80392 37.5329 9.05401 36.8597 8.65773C30.7191 5.05828 23.7574 2.90918 18.2376 2.90918C6.81819 2.90905 0 9.4346 0 20.3636C0 28.3736 5.70314 34.1065 11.6577 36.4858L11.6464 47.9985C11.6464 48.3849 11.7985 48.7543 12.0726 49.0284C12.3453 49.3011 12.7146 49.4545 13.101 49.4545H50.9092C51.7132 49.4545 52.3638 48.8039 52.3638 47.9999V33.5683C58.3069 31.1848 64.0001 25.4532 64.0001 17.4546C64 6.52555 57.1818 0 45.7628 0ZM40.7273 30.5455C38.4375 30.5455 37.1932 30.9375 35.9901 31.3168C34.9247 31.6534 33.8239 31.9999 32.2429 31.9999C30.6975 31.9999 29.2529 31.4147 27.723 30.7954C25.7486 29.9972 23.5099 29.0909 20.3636 29.0909C19.5596 29.0909 18.909 28.4403 18.909 27.6363C18.909 26.8323 19.5596 26.1818 20.3636 26.1818C24.0753 26.1818 26.7032 27.2457 28.8139 28.0995C30.1833 28.6536 31.2642 29.091 32.2429 29.091C33.375 29.091 34.1436 28.8495 35.115 28.5427C36.3963 28.1393 37.9886 27.6364 40.7272 27.6364C41.5312 27.6364 42.1818 28.287 42.1818 29.091C42.1818 29.8949 41.5312 30.5455 40.7273 30.5455Z" fill="#F0F0F0"/>
</g>
<path d="M138.35 15.95H147.75L135.9 51H126.5L119.85 27.15L113.1 51H103.7L91.9 15.95H101.75L108.65 41.55L115.55 15.95H124.5L131.5 41.55L138.35 15.95ZM159.79 23.65C164.19 23.65 167.574 24.95 169.94 27.55C172.307 30.15 173.49 33.7167 173.49 38.25C173.49 38.95 173.474 39.4833 173.44 39.85H154.64C155.074 41.3833 155.824 42.5667 156.89 43.4C157.957 44.2 159.257 44.6 160.79 44.6C161.957 44.6 163.074 44.3667 164.14 43.9C165.24 43.4333 166.24 42.75 167.14 41.85L171.79 46.5C170.39 48.0667 168.69 49.2667 166.69 50.1C164.724 50.9 162.49 51.3 159.99 51.3C157.09 51.3 154.557 50.7333 152.39 49.6C150.224 48.4667 148.557 46.8667 147.39 44.8C146.257 42.7333 145.69 40.3333 145.69 37.6C145.69 34.8333 146.274 32.4 147.44 30.3C148.607 28.1667 150.257 26.5333 152.39 25.4C154.524 24.2333 156.99 23.65 159.79 23.65ZM164.84 35.1C164.84 33.5333 164.374 32.2833 163.44 31.35C162.54 30.3833 161.34 29.9 159.84 29.9C158.44 29.9 157.257 30.3667 156.29 31.3C155.357 32.2333 154.74 33.5 154.44 35.1H164.84ZM199.067 51L193.967 41.3H193.767H187.167V51H178.017V15.95H193.767C198.401 15.95 201.984 17.0333 204.517 19.2C207.084 21.3333 208.367 24.35 208.367 28.25C208.367 30.8833 207.834 33.1667 206.767 35.1C205.701 37 204.151 38.4833 202.117 39.55L209.417 51H199.067ZM187.167 34H193.817C195.684 34 197.117 33.5333 198.117 32.6C199.151 31.6667 199.667 30.3167 199.667 28.55C199.667 26.85 199.151 25.55 198.117 24.65C197.117 23.7167 195.684 23.25 193.817 23.25H187.167V34ZM226.099 23.65C230.499 23.65 233.882 24.95 236.249 27.55C238.615 30.15 239.799 33.7167 239.799 38.25C239.799 38.95 239.782 39.4833 239.749 39.85H220.949C221.382 41.3833 222.132 42.5667 223.199 43.4C224.265 44.2 225.565 44.6 227.099 44.6C228.265 44.6 229.382 44.3667 230.449 43.9C231.549 43.4333 232.549 42.75 233.449 41.85L238.099 46.5C236.699 48.0667 234.999 49.2667 232.999 50.1C231.032 50.9 228.799 51.3 226.299 51.3C223.399 51.3 220.865 50.7333 218.699 49.6C216.532 48.4667 214.865 46.8667 213.699 44.8C212.565 42.7333 211.999 40.3333 211.999 37.6C211.999 34.8333 212.582 32.4 213.749 30.3C214.915 28.1667 216.565 26.5333 218.699 25.4C220.832 24.2333 223.299 23.65 226.099 23.65ZM231.149 35.1C231.149 33.5333 230.682 32.2833 229.749 31.35C228.849 30.3833 227.649 29.9 226.149 29.9C224.749 29.9 223.565 30.3667 222.599 31.3C221.665 32.2333 221.049 33.5 220.749 35.1H231.149ZM262.376 32.5C258.876 30.6667 256.009 29.75 253.776 29.75C253.009 29.75 252.392 29.9 251.926 30.2C251.459 30.4667 251.226 30.8833 251.226 31.45C251.226 32.05 251.592 32.5333 252.326 32.9C253.059 33.2667 254.226 33.6667 255.826 34.1C257.759 34.6667 259.359 35.2333 260.626 35.8C261.926 36.3333 263.042 37.1667 263.976 38.3C264.909 39.4 265.376 40.85 265.376 42.65C265.376 45.3833 264.309 47.5333 262.176 49.1C260.076 50.6333 257.326 51.4 253.926 51.4C251.626 51.4 249.426 51.0833 247.326 50.45C245.226 49.7833 243.359 48.8167 241.726 47.55L244.526 41.8C246.059 42.8667 247.659 43.7 249.326 44.3C251.026 44.8667 252.626 45.15 254.126 45.15C254.992 45.15 255.676 45.0167 256.176 44.75C256.709 44.45 256.976 44.0333 256.976 43.5C256.976 42.8333 256.592 42.3167 255.826 41.95C255.092 41.5833 253.926 41.1833 252.326 40.75C250.426 40.1833 248.859 39.6333 247.626 39.1C246.392 38.5333 245.309 37.7 244.376 36.6C243.476 35.5 243.026 34.0667 243.026 32.3C243.026 29.5667 244.059 27.4333 246.126 25.9C248.192 24.3333 250.859 23.55 254.126 23.55C256.092 23.55 258.026 23.8167 259.926 24.35C261.859 24.8833 263.676 25.6667 265.376 26.7L262.376 32.5ZM287.756 49.6C286.756 50.1667 285.606 50.6167 284.306 50.95C283.006 51.25 281.689 51.4 280.356 51.4C277.689 51.4 275.523 50.6333 273.856 49.1C272.223 47.5667 271.406 45.45 271.406 42.75V31.15H267.656V25.25H271.406V17.75H280.256V25.25H287.256V31.15H280.256V41.35C280.256 43.25 281.039 44.2 282.606 44.2C283.573 44.2 284.723 43.9 286.056 43.3L287.756 49.6ZM304.386 23.65C307.319 23.65 309.902 24.2333 312.136 25.4C314.369 26.5333 316.102 28.15 317.336 30.25C318.569 32.3167 319.186 34.7167 319.186 37.45C319.186 40.2167 318.569 42.65 317.336 44.75C316.102 46.8167 314.369 48.4333 312.136 49.6C309.902 50.7333 307.319 51.3 304.386 51.3C301.452 51.3 298.869 50.7333 296.636 49.6C294.402 48.4333 292.669 46.8167 291.436 44.75C290.236 42.65 289.636 40.2167 289.636 37.45C289.636 34.7167 290.236 32.3167 291.436 30.25C292.669 28.15 294.402 26.5333 296.636 25.4C298.869 24.2333 301.452 23.65 304.386 23.65ZM304.386 30.85C302.652 30.85 301.252 31.4667 300.186 32.7C299.119 33.9333 298.586 35.55 298.586 37.55C298.586 39.5833 299.119 41.2167 300.186 42.45C301.252 43.6833 302.652 44.3 304.386 44.3C306.152 44.3 307.569 43.6833 308.636 42.45C309.702 41.2167 310.236 39.5833 310.236 37.55C310.236 35.55 309.686 33.9333 308.586 32.7C307.519 31.4667 306.119 30.85 304.386 30.85Z" fill="#F0F0F0"/>
<defs>
<clipPath id="clip0">
<rect width="64" height="64" fill="white"/>
</clipPath>
</defs>
</svg>
