<svg width="277" height="75" viewBox="0 0 277 75" fill="none" xmlns="http://www.w3.org/2000/svg">
<path d="M264.087 30.9313L266.756 39.5116H261.05L264.271 30.9313H264.087ZM251.894 48.9113H258.382L259.9 44.5248H268.09L269.609 48.9113H276.096L267.124 23.9418H260.82L251.894 48.9113ZM244.256 48.9113H250.744V23.9418H244.256V48.9113ZM223.274 40.331C223.274 46.3083 227.83 48.9113 233.167 48.9113C238.136 48.9113 243.06 46.9349 243.06 40.9095C243.06 36.523 239.609 34.9322 236.388 33.92C232.753 32.9077 229.532 32.9077 229.532 30.9313C229.532 29.3406 231.419 28.955 232.385 28.955C234.271 28.955 236.204 29.5335 236.204 31.7508H241.909C241.909 26.352 237.354 23.749 232.753 23.749C228.382 23.749 223.228 25.7254 223.228 31.317C223.228 35.7035 227.047 37.2942 230.084 38.1137C233.535 39.1259 236.756 39.5116 236.756 41.7289C236.756 43.7053 234.869 44.1391 232.937 44.1391C230.452 44.1391 228.75 43.1268 228.75 40.1382H223.044L223.274 40.331ZM212.416 30.9313L215.084 39.5116H209.379L212.6 30.9313H212.416ZM200.452 48.9113H206.756L208.274 44.5248H216.649L218.167 48.9113H224.655L215.682 23.9418H209.195L200.452 48.9113ZM179.471 48.9113H181.955V27.7499L195.851 48.9113H198.52V23.9418H196.219V44.9104L182.139 24.1829H179.471V48.9113ZM174.501 48.9113H176.802V23.9418H174.501V48.9113ZM150.897 48.9113H157.155V38.9331H165.345V48.9113H171.465V23.9418H165.345V32.9077H157.155V24.1829H150.851V48.9113H150.897ZM148.965 32.9559C148.965 27.3643 143.811 23.99 138.888 23.99C132.032 23.99 127.477 29.5817 127.477 36.5712C127.477 43.3679 132.032 48.9595 138.888 48.9595C144.593 48.9595 148.965 45.3442 149.379 38.9813H143.673C143.305 41.97 141.787 43.5607 138.888 43.5607C135.069 43.5607 133.55 39.9454 133.55 36.5712C133.55 32.9559 135.069 29.3888 138.888 29.3888C141.373 29.3888 143.259 30.5939 143.443 33.0041H149.149H148.965V32.9559ZM107.646 48.9113H127.063V43.3197H113.719V38.5475H125.544V33.5343H114.133V28.955H126.695V24.1829H107.646V48.9113ZM105.713 23.9418H85.6977V29.5334H92.7375V48.9113H99.0412V29.5334H106.081V23.9418H105.713Z" fill="black"/>
<path d="M48.1517 33.3417C48.7038 33.7273 49.302 33.3417 49.1179 32.5223L46.0811 26.9307H44.9308L25.8817 62.2636C25.0995 63.083 23.9952 63.083 23.5811 62.2636L17.0934 50.8876L16.7253 49.2969V39.3189C16.7253 38.3066 16.3572 37.7282 15.759 37.3426L0.528973 23.3637C-0.437285 22.7852 -0.0231747 21.3873 1.31118 21.3873H28.5504L35.2222 25.3882C35.5903 25.7738 35.5903 26.2077 35.2222 26.4005L32.5535 31.6064C32.5535 31.992 32.1854 32.1848 32.0014 31.992L26.6639 29.0034L25.5136 28.6178H18.4277C17.8756 28.6178 17.6455 29.4373 18.0596 29.8229L22.8449 33.8237C23.3971 34.4022 23.6271 35.2216 23.6271 35.8001V48.9595C23.6271 49.779 24.5934 49.9718 24.9615 49.3452L44.7928 13.4338C45.1609 12.8554 46.6793 12.8554 46.6793 13.4338L67.0627 50.3574C68.029 51.5625 66.6946 52.7676 65.5443 52.3337L41.894 37.7764C41.5259 37.7764 41.3419 37.198 41.5259 36.9569L44.3787 31.9438C44.3787 31.5582 44.9308 31.5582 45.3449 31.5582L48.1977 33.5345V33.3417H48.1517Z" fill="#E10000"/>
</svg>
