<svg width="277" height="49" viewBox="0 0 277 49" fill="none" xmlns="http://www.w3.org/2000/svg">
<path d="M264.957 17.7975L267.626 25.9877H261.92L265.141 17.7975H264.957ZM252.764 34.9601H259.252L260.77 30.773H268.96L270.479 34.9601H276.966L267.994 11.1257H261.69L252.764 34.9601ZM245.126 34.9601H251.614V11.1257H245.126V34.9601ZM224.144 26.7699C224.144 32.4754 228.699 34.9601 234.037 34.9601C239.006 34.9601 243.929 33.0736 243.929 27.322C243.929 23.1349 240.479 21.6165 237.258 20.6502C233.623 19.684 230.402 19.684 230.402 17.7975C230.402 16.2791 232.288 15.911 233.255 15.911C235.141 15.911 237.074 16.4631 237.074 18.5797H242.779C242.779 13.4263 238.224 10.9417 233.623 10.9417C229.252 10.9417 224.098 12.8281 224.098 18.1656C224.098 22.3527 227.917 23.8711 230.954 24.6533C234.405 25.6196 237.626 25.9877 237.626 28.1042C237.626 29.9907 235.739 30.4048 233.807 30.4048C231.322 30.4048 229.62 29.4386 229.62 26.5858H223.914L224.144 26.7699ZM213.285 17.7975L215.954 25.9877H210.248L213.469 17.7975H213.285ZM201.322 34.9601H207.626L209.144 30.773H217.518L219.037 34.9601H225.525L216.552 11.1257H210.064L201.322 34.9601ZM180.34 34.9601H182.825V14.7607L196.721 34.9601H199.39V11.1257H197.089V31.141L183.009 11.3558H180.34V34.9601ZM175.371 34.9601H177.672V11.1257H175.371V34.9601ZM151.767 34.9601H158.025V25.4355H166.215V34.9601H172.334V11.1257H166.215V19.684H158.025V11.3558H151.721V34.9601H151.767ZM149.834 19.73C149.834 14.3926 144.681 11.1717 139.758 11.1717C132.902 11.1717 128.347 16.5091 128.347 23.1809C128.347 29.6687 132.902 35.0061 139.758 35.0061C145.463 35.0061 149.834 31.5552 150.248 25.4815H144.543C144.175 28.3343 142.656 29.8527 139.758 29.8527C135.939 29.8527 134.42 26.4018 134.42 23.1809C134.42 19.73 135.939 16.3251 139.758 16.3251C142.242 16.3251 144.129 17.4754 144.313 19.776H150.018H149.834V19.73ZM108.515 34.9601H127.933V29.6226H114.589V25.0674H126.414V20.2821H115.003V15.911H127.564V11.3558H108.515V34.9601ZM106.583 11.1257H86.5675V16.4631H93.6074V34.9601H99.911V16.4631H106.951V11.1257H106.583Z" fill="black"/>
<path d="M49.0215 20.0983C49.5736 20.4664 50.1718 20.0983 49.9877 19.3161L46.9509 13.9787H45.8006L26.7515 47.7057C25.9693 48.4879 24.865 48.4879 24.4509 47.7057L17.9632 36.8468L17.5951 35.3284V25.8039C17.5951 24.8376 17.227 24.2854 16.6288 23.9173L1.39879 10.5738C0.432527 10.0216 0.846637 8.68729 2.18099 8.68729H29.4203L36.092 12.5063C36.4601 12.8744 36.4601 13.2885 36.092 13.4726L33.4233 18.4419C33.4233 18.81 33.0552 18.994 32.8712 18.81L27.5338 15.9572L26.3834 15.5891H19.2976C18.7454 15.5891 18.5153 16.3713 18.9295 16.7394L23.7147 20.5585C24.2669 21.1106 24.4969 21.8928 24.4969 22.445V35.0063C24.4969 35.7885 25.4632 35.9726 25.8313 35.3744L45.6626 1.09526C46.0307 0.543115 47.5491 0.543115 47.5491 1.09526L67.9325 36.3407C68.8988 37.491 67.5644 38.6413 66.4141 38.2272L42.7638 24.3315C42.3957 24.3315 42.2117 23.7793 42.3957 23.5493L45.2485 18.764C45.2485 18.3959 45.8006 18.3959 46.2147 18.3959L49.0675 20.2824V20.0983H49.0215Z" fill="#E10000"/>
</svg>
